<svg width="97" height="27" viewBox="0 0 97 27" fill="none" xmlns="http://www.w3.org/2000/svg">
<path d="M0 11.0416L10.6826 1.96554C12.1288 0.734476 13.9705 0.0364377 15.8885 -0.00755201C17.8064 -0.0515417 19.6797 0.561291 21.1835 1.7247C19.7811 1.1837 18.2533 1.02999 16.7675 1.2804C15.2816 1.53081 13.895 2.17569 12.7594 3.14442L2.07681 12.2078L0 11.0416Z" fill="white"/>
<path d="M3.89404 13.2594L14.6156 4.18332C16.0618 2.95225 17.9035 2.25421 19.8215 2.21022C21.7394 2.16623 23.6127 2.77906 25.1164 3.94247C23.7152 3.39979 22.1881 3.24402 20.7023 3.49218C19.2165 3.74035 17.8293 4.38291 16.6924 5.34951L6.00979 14.4256L3.89404 13.2594Z" fill="white"/>
<path d="M7.86597 15.4776L18.5486 6.40158C19.9948 5.17051 21.8365 4.47247 23.7544 4.42848C25.6724 4.38449 27.5456 4.99733 29.0494 6.16073C27.6448 5.62308 26.1156 5.47351 24.6297 5.72841C23.1437 5.98331 21.7583 6.63285 20.6254 7.6058L9.94278 16.6438L7.86597 15.4776Z" fill="white"/>
<path d="M34.0597 15.9592L23.3641 25.0352C21.9167 26.264 20.0754 26.9605 18.1581 27.0045C16.2408 27.0485 14.368 26.4371 12.8632 25.2761C14.2644 25.8187 15.7915 25.9745 17.2773 25.7264C18.7631 25.4782 20.1504 24.8356 21.2873 23.869L31.9699 14.793L34.0597 15.9592Z" fill="white"/>
<path d="M30.1267 13.7409L19.4701 22.817C18.0239 24.048 16.1822 24.7461 14.2642 24.7901C12.3463 24.834 10.473 24.2212 8.96924 23.0578C10.3705 23.6005 11.8975 23.7563 13.3833 23.5081C14.8691 23.2599 16.2564 22.6174 17.3933 21.6508L28.0759 12.5747L30.1267 13.7409Z" fill="white"/>
<path d="M26.1938 11.5226L15.5112 20.5987C14.065 21.8298 12.2233 22.5278 10.3053 22.5718C8.38735 22.6158 6.5141 22.003 5.01031 20.8395C6.41153 21.3822 7.93861 21.538 9.42442 21.2898C10.9102 21.0417 12.2975 20.3991 13.4344 19.4325L24.117 10.3564L26.1938 11.5226Z" fill="white"/>
<path fill-rule="evenodd" clip-rule="evenodd" d="M46.7282 14.5142C46.7656 15.2389 46.5174 15.9501 46.0346 16.5017C45.5518 17.0534 44.8711 17.4035 44.1322 17.4804C43.9462 17.5079 43.7562 17.4957 43.5755 17.4445C43.3948 17.3932 43.2277 17.3042 43.0857 17.1837C42.9437 17.0631 42.8303 16.9138 42.7532 16.7461C42.6762 16.5785 42.6374 16.3965 42.6395 16.2128C42.6395 15.224 43.4053 14.2606 46.8321 14.2606L46.7282 14.5142ZM50.0511 19.6733C50.0511 18.6592 49.9732 17.493 49.9732 16.5043V11.4085C49.9732 8.73388 48.831 7.12402 44.7812 7.12402C43.2419 7.13342 41.715 7.39479 40.2642 7.89726L40.5367 10.5466C41.6835 9.94337 42.9599 9.61328 44.262 9.58318C46.0922 9.58318 46.7282 10.255 46.7282 11.5353V12.2071C42.4448 12.2071 39.4464 13.7663 39.4464 16.7198C39.4256 17.1757 39.5071 17.6305 39.6853 18.0524C39.8634 18.4743 40.1338 18.8531 40.4775 19.1622C40.8213 19.4714 41.2301 19.7034 41.6753 19.842C42.1205 19.9807 42.5913 20.0226 43.0549 19.9649C43.8899 19.9993 44.717 19.7945 45.4343 19.3755C46.1516 18.9566 46.7277 18.3419 47.0917 17.6071C46.9959 18.296 46.9525 18.9909 46.9619 19.686L50.0511 19.6733Z" fill="white"/>
<path d="M61.824 19.3184L61.5644 16.6184C60.785 16.9744 59.9326 17.1522 59.0722 17.1381C56.9176 17.1381 56.0739 15.7057 56.0739 13.5888C56.0739 11.2564 57.1123 9.78601 59.1761 9.78601C59.9584 9.80141 60.7318 9.95161 61.4606 10.2297L61.7851 7.47897C60.9393 7.25195 60.0662 7.13684 59.1891 7.13672C54.7239 7.13672 52.699 10.0902 52.699 13.9311C52.699 18.1142 54.8797 19.9015 58.3843 19.9015C59.5605 19.9097 60.729 19.7166 61.837 19.3311" fill="white"/>
<path fill-rule="evenodd" clip-rule="evenodd" d="M67.6002 7.35196H64.3552V19.6731H67.6002V7.35196ZM68.0026 3.80267C67.9618 3.30719 67.7315 2.84486 67.3575 2.50773C66.9835 2.1706 66.4931 1.9834 65.9842 1.9834C65.4752 1.9834 64.9848 2.1706 64.6108 2.50773C64.2368 2.84486 64.0065 3.30719 63.9658 3.80267C63.9675 4.05736 64.0205 4.30923 64.1219 4.5439C64.2233 4.77857 64.371 4.99144 64.5566 5.17035C64.7422 5.34927 64.9621 5.49073 65.2037 5.58666C65.4453 5.68258 65.7039 5.7311 65.9647 5.72943C66.4961 5.73622 67.0086 5.53741 67.3904 5.17642C67.7723 4.81542 67.9923 4.32156 68.0026 3.80267Z" fill="white"/>
<path d="M82.06 19.6605V11.0154C82.06 8.8605 81.1514 7.07318 78.3087 7.07318C77.4183 7.04491 76.5385 7.26934 75.776 7.71929C75.0135 8.16924 74.4008 8.82542 74.0123 9.60839C74.1327 8.88756 74.1934 8.15845 74.194 7.42811H71.0918V19.7492H74.3368V13.7154C74.3368 11.5605 75.6348 9.72247 77.2833 9.72247C78.4775 9.72247 78.8279 10.4957 78.8279 11.776V19.6605H82.06Z" fill="white"/>
<path fill-rule="evenodd" clip-rule="evenodd" d="M93.6512 13.4493C93.6512 15.9845 92.431 17.2521 90.8345 17.2521C88.9524 17.2521 88.0178 15.9845 88.0178 13.4493C88.0178 10.9141 89.4326 9.77321 90.8605 9.77321C92.7685 9.77321 93.6252 11.0408 93.6252 13.4366L93.6512 13.4493ZM96.9741 13.2591C96.9741 9.02533 94.6636 7.08589 91.0811 7.08589C90.1983 7.06451 89.3207 7.22324 88.5043 7.55195C87.688 7.88065 86.9508 8.37209 86.34 8.99486C85.7292 9.61762 85.2581 10.358 84.957 11.1687C84.6558 11.9793 84.5312 12.8424 84.5911 13.7028C84.5911 18.0887 86.9015 19.9014 90.484 19.9014C91.368 19.9192 92.2462 19.7571 93.0626 19.4256C93.879 19.094 94.6158 18.6001 95.2263 17.9754C95.8367 17.3507 96.3073 16.6088 96.6082 15.7968C96.9091 14.9849 97.0337 14.1207 96.9741 13.2591Z" fill="white"/>
</svg>
