<svg width="97" height="27" viewBox="0 0 97 27" fill="none" xmlns="http://www.w3.org/2000/svg">
<path d="M0 11.0349L10.6839 1.96434C12.1302 0.734022 13.9722 0.0364095 15.8903 -0.00755336C17.8085 -0.0515162 19.682 0.560943 21.186 1.72364C19.7834 1.18297 18.2555 1.02935 16.7695 1.27961C15.2834 1.52988 13.8966 2.17436 12.7609 3.14249L2.07706 12.2003L0 11.0349Z" fill="#ED7F22"/>
<path d="M3.89404 13.2509L14.6168 4.1804C16.0632 2.95009 17.9052 2.25247 19.8233 2.20851C21.7415 2.16455 23.615 2.77701 25.119 3.93971C23.7176 3.39736 22.1903 3.24167 20.7043 3.48969C19.2183 3.73771 17.8309 4.37987 16.6939 5.34589L6.01004 14.4164L3.89404 13.2509Z" fill="#ED7F22"/>
<path d="M7.86597 15.468L18.5498 6.39744C19.9962 5.16713 21.8381 4.46951 23.7563 4.42555C25.6745 4.38159 27.548 4.99405 29.0519 6.15675C27.6471 5.61942 26.1178 5.46994 24.6317 5.72469C23.1455 5.97943 21.76 6.62857 20.6269 7.60094L9.94302 16.6335L7.86597 15.468Z" fill="#ED7F22"/>
<path d="M34.0637 15.9494L23.3669 25.0199C21.9193 26.248 20.0778 26.9441 18.1603 26.988C16.2428 27.032 14.3697 26.421 12.8647 25.2606C14.2661 25.803 15.7934 25.9587 17.2794 25.7107C18.7654 25.4626 20.1528 24.8205 21.2898 23.8545L31.9737 14.7839L34.0637 15.9494Z" fill="#C41D6D"/>
<path d="M30.1302 13.7326L19.4723 22.8031C18.026 24.0335 16.184 24.7311 14.2658 24.775C12.3476 24.819 10.4742 24.2065 8.97021 23.0438C10.3716 23.5862 11.8989 23.7419 13.3848 23.4939C14.8708 23.2458 16.2582 22.6037 17.3953 21.6377L28.0791 12.5671L30.1302 13.7326Z" fill="#C41D6D"/>
<path d="M26.1962 11.5153L15.5124 20.5859C14.066 21.8162 12.2241 22.5138 10.3059 22.5578C8.38769 22.6017 6.51421 21.9893 5.01025 20.8266C6.41163 21.3689 7.9389 21.5246 9.42488 21.2766C10.9109 21.0286 12.2983 20.3864 13.4353 19.4204L24.1192 10.3499L26.1962 11.5153Z" fill="#C41D6D"/>
<path fill-rule="evenodd" clip-rule="evenodd" d="M46.7336 14.5053C46.771 15.2296 46.5227 15.9403 46.0399 16.4916C45.5571 17.0429 44.8763 17.3929 44.1373 17.4697C43.9512 17.4972 43.7613 17.485 43.5805 17.4338C43.3998 17.3826 43.2327 17.2936 43.0907 17.1731C42.9486 17.0526 42.8352 16.9034 42.7581 16.7359C42.6811 16.5683 42.6423 16.3865 42.6444 16.2028C42.6444 15.2147 43.4103 14.2519 46.8375 14.2519L46.7336 14.5053ZM50.0569 19.6613C50.0569 18.6478 49.979 17.4823 49.979 16.4942V11.4015C49.979 8.72851 48.8366 7.11963 44.7864 7.11963C43.2468 7.12902 41.7198 7.39023 40.2688 7.8924L40.5414 10.5401C41.6882 9.93725 42.9648 9.60736 44.2671 9.57728C46.0975 9.57728 46.7336 10.2487 46.7336 11.5282V12.1996C42.4497 12.1996 39.4509 13.7578 39.4509 16.7096C39.4301 17.1652 39.5117 17.6197 39.6898 18.0414C39.8679 18.463 40.1384 18.8416 40.4822 19.1505C40.8259 19.4594 41.2348 19.6913 41.68 19.8299C42.1253 19.9684 42.5962 20.0103 43.0598 19.9526C43.8949 19.9871 44.7222 19.7823 45.4395 19.3637C46.1569 18.945 46.7331 18.3306 47.0971 17.5963C47.0013 18.2848 46.9579 18.9792 46.9673 19.6739L50.0569 19.6613Z" fill="black"/>
<path d="M61.8314 19.3066L61.5718 16.6082C60.7922 16.964 59.9398 17.1417 59.0793 17.1276C56.9243 17.1276 56.0805 15.6961 56.0805 13.5805C56.0805 11.2495 57.1191 9.78 59.1831 9.78C59.9655 9.79539 60.739 9.94549 61.4679 10.2234L61.7924 7.47437C60.9466 7.24748 60.0734 7.13244 59.1961 7.13232C54.7305 7.13232 52.7053 10.084 52.7053 13.9225C52.7053 18.1031 54.8862 19.8893 58.3913 19.8893C59.5676 19.8975 60.7363 19.7046 61.8444 19.3193" fill="black"/>
<path fill-rule="evenodd" clip-rule="evenodd" d="M67.6078 7.34771H64.3628V19.6613H67.6078V7.34771ZM68.0102 3.80058C67.9695 3.3054 67.7392 2.84336 67.3651 2.50643C66.9911 2.16951 66.5008 1.98242 65.9918 1.98242C65.4828 1.98242 64.9925 2.16951 64.6184 2.50643C64.2444 2.84336 64.0141 3.3054 63.9734 3.80058C63.9751 4.05512 64.0281 4.30683 64.1295 4.54136C64.2309 4.77589 64.3786 4.98863 64.5642 5.16743C64.7498 5.34624 64.9697 5.48762 65.2113 5.58348C65.4529 5.67935 65.7115 5.72784 65.9723 5.72617C66.5037 5.73296 67.0163 5.53427 67.3981 5.17349C67.7799 4.81272 67.9999 4.31916 68.0102 3.80058" fill="black"/>
<path d="M82.0696 19.6484V11.0086C82.0696 8.85501 81.1608 7.06878 78.3179 7.06878C77.4273 7.04053 76.5475 7.26482 75.7848 7.7145C75.0222 8.16418 74.4095 8.81996 74.021 9.60245V9.60245C74.1413 8.88206 74.2021 8.15339 74.2027 7.42349H71.1001V19.7371H74.3455V13.707C74.3455 11.5534 75.6437 9.71646 77.2923 9.71646C78.4866 9.71646 78.8371 10.4892 78.8371 11.7687V19.6484H82.0696Z" fill="black"/>
<path fill-rule="evenodd" clip-rule="evenodd" d="M93.6622 13.441C93.6622 15.9747 92.4419 17.2415 90.8452 17.2415C88.9629 17.2415 88.0282 15.9747 88.0282 13.441C88.0282 10.9073 89.4432 9.76718 90.8711 9.76718C92.7794 9.76718 93.6362 11.034 93.6362 13.4283L93.6622 13.441ZM96.9855 13.251C96.9855 9.01975 94.6748 7.08149 91.0918 7.08149C90.209 7.06013 89.3312 7.21876 88.5148 7.54727C87.6983 7.87577 86.961 8.36691 86.3501 8.9893C85.7393 9.61168 85.2682 10.3516 84.967 11.1618C84.6658 11.9719 84.5412 12.8345 84.601 13.6944C84.601 18.0776 86.9118 19.8892 90.4947 19.8892C91.3788 19.907 92.257 19.745 93.0735 19.4136C93.8901 19.0823 94.627 18.5887 95.2375 17.9644C95.8479 17.3401 96.3186 16.5986 96.6195 15.7871C96.9205 14.9757 97.0451 14.112 96.9855 13.251Z" fill="black"/>
</svg>
