<svg width="40" height="40" viewBox="0 0 40 40" fill="none" xmlns="http://www.w3.org/2000/svg">
<path d="M2.5 35H12.5V37.5H2.5V35Z" fill="black"/>
<path d="M21.25 36.25C21.0628 36.2499 20.8779 36.2077 20.7092 36.1266C20.5404 36.0454 20.392 35.9274 20.275 35.7813L15.65 30H2.5V27.5H16.25C16.4372 27.5001 16.6221 27.5423 16.7908 27.6234C16.9596 27.7046 17.108 27.8226 17.225 27.9688L21.1588 32.8838L27.71 23.0563C27.8209 22.89 27.9701 22.7527 28.1451 22.6559C28.32 22.5592 28.5156 22.5059 28.7154 22.5004C28.9153 22.4948 29.1135 22.5373 29.2935 22.6243C29.4735 22.7112 29.6301 22.8401 29.75 23L33.125 27.5H37.5V30H32.5C32.3059 30 32.1146 29.9548 31.941 29.868C31.7674 29.7813 31.6164 29.6553 31.5 29.5L28.81 25.9125L22.29 35.6938C22.1809 35.8574 22.0347 35.9929 21.8634 36.0894C21.692 36.1858 21.5002 36.2404 21.3037 36.2488L21.25 36.25Z" fill="black"/>
<path d="M13.75 20V13.75H15C16.3256 13.7483 17.5964 13.221 18.5337 12.2837C19.471 11.3464 19.9983 10.0756 20 8.75V5H16.25C14.97 5.0021 13.7401 5.49773 12.8162 6.38375C12.169 5.20846 11.2184 4.22823 10.0635 3.54516C8.90864 2.86209 7.59175 2.50117 6.25 2.5H2.5V6.25C2.50232 8.23841 3.29324 10.1447 4.69926 11.5507C6.10528 12.9568 8.01159 13.7477 10 13.75H11.25V20H2.5V22.5H20V20H13.75ZM16.25 7.5H17.5V8.75C17.4993 9.41284 17.2357 10.0483 16.767 10.517C16.2983 10.9857 15.6628 11.2493 15 11.25H13.75V10C13.7507 9.33716 14.0143 8.70166 14.483 8.23296C14.9517 7.76427 15.5872 7.50066 16.25 7.5ZM10 11.25C8.67443 11.2483 7.40362 10.721 6.46629 9.78371C5.52897 8.84638 5.00165 7.57557 5 6.25V5H6.25C7.57557 5.00165 8.84638 5.52897 9.78371 6.46629C10.721 7.40362 11.2483 8.67443 11.25 10V11.25H10Z" fill="black"/>
</svg>
