<svg width="42" height="42" viewBox="0 0 42 42" fill="none" xmlns="http://www.w3.org/2000/svg">
<path d="M8.94206 3.15787L7.09406 5.00324L9.84375 7.75162L11.6891 5.90624L8.94075 3.15787H8.94206ZM33.0592 3.15787L30.3096 5.90624L32.1562 7.75162L34.9046 5.00455L33.0579 3.15787H33.0592ZM21 3.97687C20.5669 3.98212 20.1285 4.00706 19.6875 4.06087C19.6744 4.06087 19.6613 4.05824 19.6481 4.06087C14.3246 4.67118 10.0879 8.97224 9.35156 14.2721C8.76356 18.5377 10.5223 22.4057 13.4531 24.8968C14.652 25.92 15.4629 27.324 15.75 28.8737V36.7487H18.7425C19.1992 37.5322 20.0327 38.0612 21 38.0612C21.9673 38.0612 22.8007 37.5322 23.2575 36.7487H26.25V31.4987H26.3734V29.9394C26.3734 28.0153 27.3735 26.0754 28.9984 24.5674C31.1719 22.3912 32.8125 19.3003 32.8125 15.75C32.8125 9.26624 27.4759 3.91649 21 3.97687ZM21 6.60187C26.0728 6.53099 30.1875 10.6837 30.1875 15.75C30.1875 18.4984 28.9144 20.9186 27.1517 22.68L27.1937 22.722C25.442 24.3373 24.3093 26.5135 23.9912 28.875H18.2503C17.9616 26.6254 16.9969 24.4479 15.1738 22.8861C12.8546 20.9173 11.4726 17.9511 11.9346 14.6016C12.5081 10.4672 15.8629 7.14262 19.9736 6.68718C20.313 6.63986 20.6548 6.61182 20.9974 6.60318L21 6.60187ZM2.625 15.75V18.375H6.5625V15.75H2.625ZM35.4375 15.75V18.375H39.375V15.75H35.4375ZM9.84375 26.3734L7.09538 29.1204L8.94206 30.9671L11.6878 28.2187L9.84375 26.3734ZM32.1562 26.3734L30.3109 28.2187L33.0579 30.9671L34.9046 29.1204L32.1562 26.3734ZM18.375 31.5H23.625V34.125H18.375V31.5Z" fill="black"/>
</svg>
