<svg width="48" height="48" viewBox="0 0 48 48" fill="none" xmlns="http://www.w3.org/2000/svg">
<mask id="path-1-outside-1_484:264" maskUnits="userSpaceOnUse" x="1.25049" y="4.24969" width="45" height="39" fill="black">
<rect fill="white" x="1.25049" y="4.24969" width="45" height="39"/>
<path d="M45.7504 24.75C45.7484 22.8252 45.1778 20.944 44.1104 19.3423C43.0429 17.7407 41.5261 16.49 39.7504 15.7474V13.5C39.7509 11.617 39.1071 9.79055 37.926 8.32407C36.7448 6.85759 35.0975 5.83939 33.2577 5.43866C31.4178 5.03792 29.4962 5.27877 27.8122 6.12119C26.1282 6.96361 24.7831 8.35688 24.0004 10.0695C23.2178 8.35688 21.8727 6.96361 20.1886 6.12119C18.5046 5.27877 16.583 5.03792 14.7432 5.43866C12.9033 5.83939 11.256 6.85759 10.0748 8.32407C8.89372 9.79055 8.24992 11.617 8.25041 13.5V15.7474C6.47357 16.4879 4.95567 17.7378 3.88795 19.3396C2.82024 20.9413 2.25049 22.8232 2.25049 24.7482C2.25049 26.6732 2.82024 28.5551 3.88795 30.1569C4.95567 31.7586 6.47357 33.0085 8.25041 33.7491V34.5C8.24992 36.383 8.89372 38.2095 10.0748 39.6759C11.256 41.1424 12.9033 42.1606 14.7432 42.5613C16.583 42.9621 18.5046 42.7212 20.1886 41.8788C21.8727 41.0364 23.2178 39.6431 24.0004 37.9305C24.7831 39.6431 26.1282 41.0364 27.8122 41.8788C29.4962 42.7212 31.4178 42.9621 33.2577 42.5613C35.0975 42.1606 36.7448 41.1424 37.926 39.6759C39.1071 38.2095 39.7509 36.383 39.7504 34.5V33.7491C41.526 33.0072 43.0427 31.7572 44.1102 30.1562C45.1777 28.5551 45.7483 26.6743 45.7504 24.75ZM16.5004 41.25C14.7108 41.248 12.9951 40.5362 11.7296 39.2708C10.4642 38.0053 9.7524 36.2896 9.75041 34.5V34.2351C10.4875 34.4106 11.2427 34.4996 12.0004 34.5H13.5004C13.6993 34.5 13.8901 34.421 14.0307 34.2803C14.1714 34.1397 14.2504 33.9489 14.2504 33.75C14.2504 33.5511 14.1714 33.3603 14.0307 33.2197C13.8901 33.079 13.6993 33 13.5004 33H12.0004C10.0542 32.9996 8.17068 32.3113 6.68278 31.0567C5.19489 29.8021 4.19836 28.0619 3.86929 26.1437C3.54021 24.2254 3.89978 22.2526 4.88445 20.5738C5.86911 18.895 7.4155 17.6183 9.25035 16.9693C9.39658 16.9176 9.52317 16.8218 9.61269 16.6951C9.70221 16.5685 9.75026 16.4172 9.75023 16.2621L9.75041 13.5C9.75041 11.7098 10.4616 9.9929 11.7274 8.72703C12.9933 7.46116 14.7102 6.75 16.5004 6.75C18.2906 6.75 20.0075 7.46116 21.2734 8.72703C22.5393 9.9929 23.2504 11.7098 23.2504 13.5V29.7653C22.4905 28.6801 21.4803 27.7941 20.3053 27.1822C19.1303 26.5703 17.8252 26.2505 16.5004 26.25C16.3015 26.25 16.1107 26.329 15.9701 26.4697C15.8294 26.6103 15.7504 26.8011 15.7504 27C15.7504 27.1989 15.8294 27.3897 15.9701 27.5303C16.1107 27.671 16.3015 27.75 16.5004 27.75C18.2906 27.75 20.0075 28.4612 21.2734 29.727C22.5393 30.9929 23.2504 32.7098 23.2504 34.5C23.2504 36.2902 22.5393 38.0071 21.2734 39.273C20.0075 40.5388 18.2906 41.25 16.5004 41.25ZM36.0004 33H34.5004C34.3015 33 34.1107 33.079 33.9701 33.2197C33.8294 33.3603 33.7504 33.5511 33.7504 33.75C33.7504 33.9489 33.8294 34.1397 33.9701 34.2803C34.1107 34.421 34.3015 34.5 34.5004 34.5H36.0004C36.7582 34.4996 37.5133 34.4106 38.2504 34.2351V34.5C38.2504 35.835 37.8545 37.1401 37.1128 38.2501C36.3711 39.3601 35.3169 40.2253 34.0835 40.7362C32.8501 41.2471 31.4929 41.3808 30.1836 41.1203C28.8742 40.8599 27.6714 40.217 26.7274 39.273C25.7834 38.329 25.1406 37.1262 24.8801 35.8169C24.6197 34.5075 24.7533 33.1503 25.2642 31.9169C25.7751 30.6835 26.6403 29.6293 27.7503 28.8876C28.8603 28.1459 30.1654 27.75 31.5004 27.75C31.6993 27.75 31.8901 27.671 32.0307 27.5303C32.1714 27.3897 32.2504 27.1989 32.2504 27C32.2504 26.8011 32.1714 26.6103 32.0307 26.4697C31.8901 26.329 31.6993 26.25 31.5004 26.25C30.1756 26.2505 28.8705 26.5703 27.6955 27.1822C26.5205 27.7941 25.5103 28.6801 24.7504 29.7653V13.5C24.7504 11.7098 25.4616 9.9929 26.7274 8.72703C27.9933 7.46116 29.7102 6.75 31.5004 6.75C33.2906 6.75 35.0075 7.46116 36.2734 8.72703C37.5393 9.9929 38.2504 11.7098 38.2504 13.5L38.2506 16.2621C38.2506 16.4172 38.2987 16.5685 38.3882 16.6952C38.4778 16.8218 38.6044 16.9176 38.7507 16.9693C40.5855 17.6183 42.1319 18.8951 43.1166 20.5739C44.1013 22.2527 44.4608 24.2255 44.1317 26.1438C43.8026 28.062 42.806 29.8022 41.3181 31.0568C39.8302 32.3114 37.9467 32.9997 36.0004 33ZM17.2504 17.25C17.2486 18.8408 16.6159 20.3658 15.4911 21.4907C14.3662 22.6155 12.8412 23.2482 11.2504 23.25C11.0515 23.25 10.8607 23.171 10.7201 23.0303C10.5794 22.8897 10.5004 22.6989 10.5004 22.5C10.5004 22.3011 10.5794 22.1103 10.7201 21.9697C10.8607 21.829 11.0515 21.75 11.2504 21.75C12.4435 21.7487 13.5873 21.2741 14.4309 20.4305C15.2745 19.5869 15.7491 18.4431 15.7504 17.25V15.75C15.7504 15.5511 15.8294 15.3603 15.9701 15.2197C16.1107 15.079 16.3015 15 16.5004 15C16.6993 15 16.8901 15.079 17.0307 15.2197C17.1714 15.3603 17.2504 15.5511 17.2504 15.75V17.25ZM37.5004 22.5C37.5004 22.6989 37.4214 22.8897 37.2807 23.0303C37.1401 23.171 36.9493 23.25 36.7504 23.25C35.1597 23.2482 33.6346 22.6155 32.5097 21.4907C31.3849 20.3658 30.7522 18.8408 30.7504 17.25V15.75C30.7504 15.5511 30.8294 15.3603 30.9701 15.2197C31.1107 15.079 31.3015 15 31.5004 15C31.6993 15 31.8901 15.079 32.0307 15.2197C32.1714 15.3603 32.2504 15.5511 32.2504 15.75V17.25C32.2518 18.4431 32.7263 19.5869 33.5699 20.4305C34.4135 21.2741 35.5574 21.7487 36.7504 21.75C36.9493 21.75 37.1401 21.829 37.2807 21.9697C37.4214 22.1103 37.5004 22.3011 37.5004 22.5Z"/>
</mask>
<path d="M45.7504 24.75C45.7484 22.8252 45.1778 20.944 44.1104 19.3423C43.0429 17.7407 41.5261 16.49 39.7504 15.7474V13.5C39.7509 11.617 39.1071 9.79055 37.926 8.32407C36.7448 6.85759 35.0975 5.83939 33.2577 5.43866C31.4178 5.03792 29.4962 5.27877 27.8122 6.12119C26.1282 6.96361 24.7831 8.35688 24.0004 10.0695C23.2178 8.35688 21.8727 6.96361 20.1886 6.12119C18.5046 5.27877 16.583 5.03792 14.7432 5.43866C12.9033 5.83939 11.256 6.85759 10.0748 8.32407C8.89372 9.79055 8.24992 11.617 8.25041 13.5V15.7474C6.47357 16.4879 4.95567 17.7378 3.88795 19.3396C2.82024 20.9413 2.25049 22.8232 2.25049 24.7482C2.25049 26.6732 2.82024 28.5551 3.88795 30.1569C4.95567 31.7586 6.47357 33.0085 8.25041 33.7491V34.5C8.24992 36.383 8.89372 38.2095 10.0748 39.6759C11.256 41.1424 12.9033 42.1606 14.7432 42.5613C16.583 42.9621 18.5046 42.7212 20.1886 41.8788C21.8727 41.0364 23.2178 39.6431 24.0004 37.9305C24.7831 39.6431 26.1282 41.0364 27.8122 41.8788C29.4962 42.7212 31.4178 42.9621 33.2577 42.5613C35.0975 42.1606 36.7448 41.1424 37.926 39.6759C39.1071 38.2095 39.7509 36.383 39.7504 34.5V33.7491C41.526 33.0072 43.0427 31.7572 44.1102 30.1562C45.1777 28.5551 45.7483 26.6743 45.7504 24.75ZM16.5004 41.25C14.7108 41.248 12.9951 40.5362 11.7296 39.2708C10.4642 38.0053 9.7524 36.2896 9.75041 34.5V34.2351C10.4875 34.4106 11.2427 34.4996 12.0004 34.5H13.5004C13.6993 34.5 13.8901 34.421 14.0307 34.2803C14.1714 34.1397 14.2504 33.9489 14.2504 33.75C14.2504 33.5511 14.1714 33.3603 14.0307 33.2197C13.8901 33.079 13.6993 33 13.5004 33H12.0004C10.0542 32.9996 8.17068 32.3113 6.68278 31.0567C5.19489 29.8021 4.19836 28.0619 3.86929 26.1437C3.54021 24.2254 3.89978 22.2526 4.88445 20.5738C5.86911 18.895 7.4155 17.6183 9.25035 16.9693C9.39658 16.9176 9.52317 16.8218 9.61269 16.6951C9.70221 16.5685 9.75026 16.4172 9.75023 16.2621L9.75041 13.5C9.75041 11.7098 10.4616 9.9929 11.7274 8.72703C12.9933 7.46116 14.7102 6.75 16.5004 6.75C18.2906 6.75 20.0075 7.46116 21.2734 8.72703C22.5393 9.9929 23.2504 11.7098 23.2504 13.5V29.7653C22.4905 28.6801 21.4803 27.7941 20.3053 27.1822C19.1303 26.5703 17.8252 26.2505 16.5004 26.25C16.3015 26.25 16.1107 26.329 15.9701 26.4697C15.8294 26.6103 15.7504 26.8011 15.7504 27C15.7504 27.1989 15.8294 27.3897 15.9701 27.5303C16.1107 27.671 16.3015 27.75 16.5004 27.75C18.2906 27.75 20.0075 28.4612 21.2734 29.727C22.5393 30.9929 23.2504 32.7098 23.2504 34.5C23.2504 36.2902 22.5393 38.0071 21.2734 39.273C20.0075 40.5388 18.2906 41.25 16.5004 41.25ZM36.0004 33H34.5004C34.3015 33 34.1107 33.079 33.9701 33.2197C33.8294 33.3603 33.7504 33.5511 33.7504 33.75C33.7504 33.9489 33.8294 34.1397 33.9701 34.2803C34.1107 34.421 34.3015 34.5 34.5004 34.5H36.0004C36.7582 34.4996 37.5133 34.4106 38.2504 34.2351V34.5C38.2504 35.835 37.8545 37.1401 37.1128 38.2501C36.3711 39.3601 35.3169 40.2253 34.0835 40.7362C32.8501 41.2471 31.4929 41.3808 30.1836 41.1203C28.8742 40.8599 27.6714 40.217 26.7274 39.273C25.7834 38.329 25.1406 37.1262 24.8801 35.8169C24.6197 34.5075 24.7533 33.1503 25.2642 31.9169C25.7751 30.6835 26.6403 29.6293 27.7503 28.8876C28.8603 28.1459 30.1654 27.75 31.5004 27.75C31.6993 27.75 31.8901 27.671 32.0307 27.5303C32.1714 27.3897 32.2504 27.1989 32.2504 27C32.2504 26.8011 32.1714 26.6103 32.0307 26.4697C31.8901 26.329 31.6993 26.25 31.5004 26.25C30.1756 26.2505 28.8705 26.5703 27.6955 27.1822C26.5205 27.7941 25.5103 28.6801 24.7504 29.7653V13.5C24.7504 11.7098 25.4616 9.9929 26.7274 8.72703C27.9933 7.46116 29.7102 6.75 31.5004 6.75C33.2906 6.75 35.0075 7.46116 36.2734 8.72703C37.5393 9.9929 38.2504 11.7098 38.2504 13.5L38.2506 16.2621C38.2506 16.4172 38.2987 16.5685 38.3882 16.6952C38.4778 16.8218 38.6044 16.9176 38.7507 16.9693C40.5855 17.6183 42.1319 18.8951 43.1166 20.5739C44.1013 22.2527 44.4608 24.2255 44.1317 26.1438C43.8026 28.062 42.806 29.8022 41.3181 31.0568C39.8302 32.3114 37.9467 32.9997 36.0004 33ZM17.2504 17.25C17.2486 18.8408 16.6159 20.3658 15.4911 21.4907C14.3662 22.6155 12.8412 23.2482 11.2504 23.25C11.0515 23.25 10.8607 23.171 10.7201 23.0303C10.5794 22.8897 10.5004 22.6989 10.5004 22.5C10.5004 22.3011 10.5794 22.1103 10.7201 21.9697C10.8607 21.829 11.0515 21.75 11.2504 21.75C12.4435 21.7487 13.5873 21.2741 14.4309 20.4305C15.2745 19.5869 15.7491 18.4431 15.7504 17.25V15.75C15.7504 15.5511 15.8294 15.3603 15.9701 15.2197C16.1107 15.079 16.3015 15 16.5004 15C16.6993 15 16.8901 15.079 17.0307 15.2197C17.1714 15.3603 17.2504 15.5511 17.2504 15.75V17.25ZM37.5004 22.5C37.5004 22.6989 37.4214 22.8897 37.2807 23.0303C37.1401 23.171 36.9493 23.25 36.7504 23.25C35.1597 23.2482 33.6346 22.6155 32.5097 21.4907C31.3849 20.3658 30.7522 18.8408 30.7504 17.25V15.75C30.7504 15.5511 30.8294 15.3603 30.9701 15.2197C31.1107 15.079 31.3015 15 31.5004 15C31.6993 15 31.8901 15.079 32.0307 15.2197C32.1714 15.3603 32.2504 15.5511 32.2504 15.75V17.25C32.2518 18.4431 32.7263 19.5869 33.5699 20.4305C34.4135 21.2741 35.5574 21.7487 36.7504 21.75C36.9493 21.75 37.1401 21.829 37.2807 21.9697C37.4214 22.1103 37.5004 22.3011 37.5004 22.5Z" fill="black"/>
<path d="M45.7504 24.75C45.7484 22.8252 45.1778 20.944 44.1104 19.3423C43.0429 17.7407 41.5261 16.49 39.7504 15.7474V13.5C39.7509 11.617 39.1071 9.79055 37.926 8.32407C36.7448 6.85759 35.0975 5.83939 33.2577 5.43866C31.4178 5.03792 29.4962 5.27877 27.8122 6.12119C26.1282 6.96361 24.7831 8.35688 24.0004 10.0695C23.2178 8.35688 21.8727 6.96361 20.1886 6.12119C18.5046 5.27877 16.583 5.03792 14.7432 5.43866C12.9033 5.83939 11.256 6.85759 10.0748 8.32407C8.89372 9.79055 8.24992 11.617 8.25041 13.5V15.7474C6.47357 16.4879 4.95567 17.7378 3.88795 19.3396C2.82024 20.9413 2.25049 22.8232 2.25049 24.7482C2.25049 26.6732 2.82024 28.5551 3.88795 30.1569C4.95567 31.7586 6.47357 33.0085 8.25041 33.7491V34.5C8.24992 36.383 8.89372 38.2095 10.0748 39.6759C11.256 41.1424 12.9033 42.1606 14.7432 42.5613C16.583 42.9621 18.5046 42.7212 20.1886 41.8788C21.8727 41.0364 23.2178 39.6431 24.0004 37.9305C24.7831 39.6431 26.1282 41.0364 27.8122 41.8788C29.4962 42.7212 31.4178 42.9621 33.2577 42.5613C35.0975 42.1606 36.7448 41.1424 37.926 39.6759C39.1071 38.2095 39.7509 36.383 39.7504 34.5V33.7491C41.526 33.0072 43.0427 31.7572 44.1102 30.1562C45.1777 28.5551 45.7483 26.6743 45.7504 24.75ZM16.5004 41.25C14.7108 41.248 12.9951 40.5362 11.7296 39.2708C10.4642 38.0053 9.7524 36.2896 9.75041 34.5V34.2351C10.4875 34.4106 11.2427 34.4996 12.0004 34.5H13.5004C13.6993 34.5 13.8901 34.421 14.0307 34.2803C14.1714 34.1397 14.2504 33.9489 14.2504 33.75C14.2504 33.5511 14.1714 33.3603 14.0307 33.2197C13.8901 33.079 13.6993 33 13.5004 33H12.0004C10.0542 32.9996 8.17068 32.3113 6.68278 31.0567C5.19489 29.8021 4.19836 28.0619 3.86929 26.1437C3.54021 24.2254 3.89978 22.2526 4.88445 20.5738C5.86911 18.895 7.4155 17.6183 9.25035 16.9693C9.39658 16.9176 9.52317 16.8218 9.61269 16.6951C9.70221 16.5685 9.75026 16.4172 9.75023 16.2621L9.75041 13.5C9.75041 11.7098 10.4616 9.9929 11.7274 8.72703C12.9933 7.46116 14.7102 6.75 16.5004 6.75C18.2906 6.75 20.0075 7.46116 21.2734 8.72703C22.5393 9.9929 23.2504 11.7098 23.2504 13.5V29.7653C22.4905 28.6801 21.4803 27.7941 20.3053 27.1822C19.1303 26.5703 17.8252 26.2505 16.5004 26.25C16.3015 26.25 16.1107 26.329 15.9701 26.4697C15.8294 26.6103 15.7504 26.8011 15.7504 27C15.7504 27.1989 15.8294 27.3897 15.9701 27.5303C16.1107 27.671 16.3015 27.75 16.5004 27.75C18.2906 27.75 20.0075 28.4612 21.2734 29.727C22.5393 30.9929 23.2504 32.7098 23.2504 34.5C23.2504 36.2902 22.5393 38.0071 21.2734 39.273C20.0075 40.5388 18.2906 41.25 16.5004 41.25ZM36.0004 33H34.5004C34.3015 33 34.1107 33.079 33.9701 33.2197C33.8294 33.3603 33.7504 33.5511 33.7504 33.75C33.7504 33.9489 33.8294 34.1397 33.9701 34.2803C34.1107 34.421 34.3015 34.5 34.5004 34.5H36.0004C36.7582 34.4996 37.5133 34.4106 38.2504 34.2351V34.5C38.2504 35.835 37.8545 37.1401 37.1128 38.2501C36.3711 39.3601 35.3169 40.2253 34.0835 40.7362C32.8501 41.2471 31.4929 41.3808 30.1836 41.1203C28.8742 40.8599 27.6714 40.217 26.7274 39.273C25.7834 38.329 25.1406 37.1262 24.8801 35.8169C24.6197 34.5075 24.7533 33.1503 25.2642 31.9169C25.7751 30.6835 26.6403 29.6293 27.7503 28.8876C28.8603 28.1459 30.1654 27.75 31.5004 27.75C31.6993 27.75 31.8901 27.671 32.0307 27.5303C32.1714 27.3897 32.2504 27.1989 32.2504 27C32.2504 26.8011 32.1714 26.6103 32.0307 26.4697C31.8901 26.329 31.6993 26.25 31.5004 26.25C30.1756 26.2505 28.8705 26.5703 27.6955 27.1822C26.5205 27.7941 25.5103 28.6801 24.7504 29.7653V13.5C24.7504 11.7098 25.4616 9.9929 26.7274 8.72703C27.9933 7.46116 29.7102 6.75 31.5004 6.75C33.2906 6.75 35.0075 7.46116 36.2734 8.72703C37.5393 9.9929 38.2504 11.7098 38.2504 13.5L38.2506 16.2621C38.2506 16.4172 38.2987 16.5685 38.3882 16.6952C38.4778 16.8218 38.6044 16.9176 38.7507 16.9693C40.5855 17.6183 42.1319 18.8951 43.1166 20.5739C44.1013 22.2527 44.4608 24.2255 44.1317 26.1438C43.8026 28.062 42.806 29.8022 41.3181 31.0568C39.8302 32.3114 37.9467 32.9997 36.0004 33ZM17.2504 17.25C17.2486 18.8408 16.6159 20.3658 15.4911 21.4907C14.3662 22.6155 12.8412 23.2482 11.2504 23.25C11.0515 23.25 10.8607 23.171 10.7201 23.0303C10.5794 22.8897 10.5004 22.6989 10.5004 22.5C10.5004 22.3011 10.5794 22.1103 10.7201 21.9697C10.8607 21.829 11.0515 21.75 11.2504 21.75C12.4435 21.7487 13.5873 21.2741 14.4309 20.4305C15.2745 19.5869 15.7491 18.4431 15.7504 17.25V15.75C15.7504 15.5511 15.8294 15.3603 15.9701 15.2197C16.1107 15.079 16.3015 15 16.5004 15C16.6993 15 16.8901 15.079 17.0307 15.2197C17.1714 15.3603 17.2504 15.5511 17.2504 15.75V17.25ZM37.5004 22.5C37.5004 22.6989 37.4214 22.8897 37.2807 23.0303C37.1401 23.171 36.9493 23.25 36.7504 23.25C35.1597 23.2482 33.6346 22.6155 32.5097 21.4907C31.3849 20.3658 30.7522 18.8408 30.7504 17.25V15.75C30.7504 15.5511 30.8294 15.3603 30.9701 15.2197C31.1107 15.079 31.3015 15 31.5004 15C31.6993 15 31.8901 15.079 32.0307 15.2197C32.1714 15.3603 32.2504 15.5511 32.2504 15.75V17.25C32.2518 18.4431 32.7263 19.5869 33.5699 20.4305C34.4135 21.2741 35.5574 21.7487 36.7504 21.75C36.9493 21.75 37.1401 21.829 37.2807 21.9697C37.4214 22.1103 37.5004 22.3011 37.5004 22.5Z" stroke="black" stroke-width="0.8" mask="url(#path-1-outside-1_484:264)"/>
</svg>
