<?xml version="1.0" encoding="utf-8"?>
<!-- Generator: Adobe Illustrator 24.1.0, SVG Export Plug-In . SVG Version: 6.00 Build 0)  -->
<svg version="1.1" id="Слой_1" xmlns="http://www.w3.org/2000/svg" xmlns:xlink="http://www.w3.org/1999/xlink" x="0px" y="0px"
	 viewBox="0 0 112.2 79.5" style="enable-background:new 0 0 112.2 79.5;" xml:space="preserve">
<style type="text/css">
	.st0{fill:#FFFFFF;}
</style>
<path class="st0" d="M2.9,18.3c0-2,0.3-4.1,1.1-6c0.8-1.9,1.9-3.6,3.3-5.1c1.4-1.5,3.1-2.6,5-3.4c1.9-0.8,3.9-1.2,5.9-1.2
	c2,0,4,0.4,5.9,1.2c1.9,0.8,3.6,1.9,5,3.4c1.4,1.5,2.6,3.2,3.3,5.1c0.8,1.9,1.1,3.9,1.1,6v43.2c0,4.1-1.6,8-4.5,10.9
	c-2.9,2.9-6.8,4.5-10.8,4.5c-4.1,0-8-1.6-10.8-4.5c-2.9-2.9-4.5-6.8-4.5-10.9V18.3L2.9,18.3z M18.2,6.7c-3.1,0-6,1.2-8.2,3.4
	s-3.4,5.1-3.4,8.2V38h23.1V18.3c0-1.5-0.3-3-0.9-4.4c-0.6-1.4-1.4-2.7-2.5-3.8C25.3,9,24,8.2,22.6,7.6S19.7,6.7,18.2,6.7L18.2,6.7z
	 M26.3,54.2c-0.5,0-1,0.2-1.3,0.6c-0.4,0.4-0.6,0.8-0.6,1.3v8.1c0,0.5-0.1,0.9-0.3,1.3c-0.2,0.4-0.4,0.8-0.8,1.1
	c-0.3,0.3-0.7,0.6-1.1,0.8s-0.9,0.3-1.3,0.3c-0.2,0-0.5,0.1-0.7,0.1c-0.2,0.1-0.4,0.2-0.6,0.4c-0.2,0.2-0.3,0.4-0.4,0.6
	c-0.1,0.2-0.1,0.5-0.1,0.7c0,0.3,0.1,0.5,0.1,0.7c0.1,0.2,0.2,0.4,0.4,0.6c0.2,0.2,0.4,0.3,0.6,0.4c0.2,0.1,0.5,0.1,0.7,0.1
	c1.9,0,3.8-0.8,5.1-2.1c1.4-1.4,2.1-3.2,2.1-5.2v-8.1c0-0.3,0-0.5-0.1-0.7c-0.1-0.2-0.2-0.4-0.4-0.6c-0.2-0.2-0.4-0.3-0.6-0.4
	C26.8,54.2,26.5,54.2,26.3,54.2L26.3,54.2z"/>
<path class="st0" d="M83.8,18c1.4-1.5,3.1-2.6,5-3.4c1.9-0.8,3.9-1.2,5.9-1.2c2,0,4.1,0.4,5.9,1.1c1.9,0.8,3.6,1.9,5,3.4
	s2.6,3.2,3.3,5.1c0.8,1.9,1.2,3.9,1.1,6c0,2-0.4,4.1-1.2,5.9c-0.8,1.9-2,3.6-3.4,5L75.1,70.3c-2.9,2.9-6.8,4.5-10.8,4.5
	c-4.1,0-8-1.6-10.8-4.5c-2.9-2.9-4.5-6.8-4.5-10.9s1.6-8,4.5-10.9L83.8,18L83.8,18z M102.8,20.7c-2.2-2.2-5.1-3.4-8.2-3.4
	c-3.1,0-6,1.2-8.2,3.4L72.7,34.6L89,51l13.9-13.9c1.1-1.1,1.9-2.4,2.5-3.8c0.6-1.4,0.9-2.9,0.9-4.4c0-1.5-0.3-3-0.9-4.4
	C104.8,23.1,103.9,21.8,102.8,20.7L102.8,20.7z M75.1,60c-0.4-0.4-0.8-0.6-1.3-0.6c-0.5,0-1,0.2-1.3,0.6l-5.7,5.7
	c-0.3,0.3-0.7,0.6-1.1,0.8c-0.4,0.2-0.9,0.3-1.3,0.3c-0.5,0-0.9-0.1-1.3-0.3c-0.4-0.2-0.8-0.4-1.1-0.8c-0.2-0.2-0.4-0.3-0.6-0.4
	c-0.2-0.1-0.5-0.1-0.7-0.1c-0.2,0-0.5,0.1-0.7,0.1c-0.2,0.1-0.4,0.2-0.6,0.4c-0.2,0.2-0.3,0.4-0.4,0.6c-0.1,0.2-0.1,0.5-0.1,0.7
	c0,0.3,0.1,0.5,0.1,0.7c0.1,0.2,0.2,0.4,0.4,0.6c1.4,1.4,3.2,2.1,5.1,2.1c1.9,0,3.8-0.8,5.1-2.1l5.7-5.7c0.2-0.2,0.3-0.4,0.4-0.6
	c0.1-0.2,0.1-0.5,0.1-0.7c0-0.3-0.1-0.5-0.1-0.7C75.4,60.4,75.3,60.2,75.1,60L75.1,60z"/>
</svg>
