<svg width="72" height="72" viewBox="0 0 72 72" fill="none" xmlns="http://www.w3.org/2000/svg">
<path fill-rule="evenodd" clip-rule="evenodd" d="M25.0889 4.42806C25.5125 5.44819 25.0288 6.61853 24.0087 7.04209C20.2076 8.62032 16.7541 10.9308 13.8448 13.8421L13.8425 13.8444C10.9289 16.7503 8.61838 20.2033 7.0437 24.0051C5.46902 27.8068 4.66124 31.8823 4.66678 35.9973L4.66678 36C4.66678 53.3054 18.6947 67.3333 36.0001 67.3333H36.0027C40.1174 67.3386 44.1926 66.5308 47.9941 64.9561C51.7955 63.3814 55.2483 61.071 58.154 58.1576L58.1564 58.1553C61.0677 55.2461 63.3782 51.7925 64.9563 47.9914C65.3799 46.9713 66.5502 46.4876 67.5703 46.9112C68.5905 47.3347 69.0741 48.5051 68.6506 49.5252C66.8715 53.8104 64.2668 57.7037 60.985 60.9835C57.7074 64.2695 53.8127 66.8754 49.5248 68.6516C45.2364 70.428 40.6393 71.3393 35.9975 71.3333C16.4846 71.3319 0.667465 55.5144 0.666778 36.0012C0.660719 31.3597 1.57197 26.7627 3.34816 22.4744C5.12433 18.1862 7.73038 14.2913 11.0166 11.0134C14.2964 7.73167 18.1898 5.12705 22.4749 3.34787C23.495 2.92431 24.6653 3.40792 25.0889 4.42806Z" fill="white"/>
<path d="M36 36H69.3333C69.3333 17.59 54.41 2.66663 36 2.66663V36Z" fill="#E387A7"/>
<path fill-rule="evenodd" clip-rule="evenodd" d="M34 2.66663C34 1.56206 34.8954 0.666626 36 0.666626C55.5146 0.666626 71.3333 16.4854 71.3333 36C71.3333 37.1045 70.4379 38 69.3333 38H36C34.8954 38 34 37.1045 34 36V2.66663ZM38 4.72942V34H67.2705C66.2809 18.2878 53.7121 5.71907 38 4.72942Z" fill="white"/>
</svg>
